<?xml version="1.0" encoding="utf-8"?>
<!-- Generator: Adobe Illustrator 16.0.0, SVG Export Plug-In . SVG Version: 6.00 Build 0)  -->
<!DOCTYPE svg PUBLIC "-//W3C//DTD SVG 1.1//EN" "http://www.w3.org/Graphics/SVG/1.1/DTD/svg11.dtd">
<svg version="1.1" id="Layer_1" xmlns="http://www.w3.org/2000/svg" xmlns:xlink="http://www.w3.org/1999/xlink" x="0px" y="0px"
	 width="156.9px" height="145.3px" viewBox="-0.6 0 156.9 145.3" enable-background="new -0.6 0 156.9 145.3" xml:space="preserve">
<g>
	<path fill="#B3B3B3" d="M23.2,68.6l34.6-19.1c0,0,26.5,52,78.5,68.4c51.9,16.4,13.8,39.5-40.3,22.3C48.1,125.1,23.2,68.6,23.2,68.6
		z"/>
	<path fill="#FECDC2" d="M9.6,49.5C16.9,61,21.4,78,43.9,68.7c4.8-2.9,9.7-6.9,12.4-11.9c2.4-4.7,2.2-10.3,1.3-15.4
		c-2.2-12-8.2-24.2-16.1-33.6c-0.7-0.6-1.3-1.2-1.8-1.8c-1.4-2-3.3-3.4-5.6-4.5c-2.4-1.1-5.5-0.4-6.7,2.2c-4.2,3.6-2.7,8.1-0.5,12.1
		c3.1,5.5,6.1,11,9.2,16.5c-3.4-2.1-5.3-4.4-8.9-2c-4.5,2.9-4.4,7.8-3.1,12.3"/>
</g>
<g>
	<path fill="#FECDC2" d="M34.3,65.8c5.2,1.1,10.5-0.5,15.2-2.7C60.5,57.9,70.8,49,77.9,39c0.4-0.8,0.8-1.6,1.3-2.2
		c1.6-1.9,2.4-4.1,2.9-6.6c0.5-2.6-0.6-3.6-3.8-5.9c-6-1.2-13.1,6.6-16.4,9.7c-4.5,4.4-4.5,1.6-9,6"/>
</g>
<path fill="#FECDC2" d="M37.9,35c-2.7-3.1-7-6.5-11.3-4.6c-3.5,1.5-4.9,5.7-4.9,9.2c-2.5-4.9-5.1-9.7-7.7-14.6
	c-1.9-3.5-4.4-6.8-9.1-5.4c-2.5-0.4-4.5,1.6-4.8,3.8c-0.3,2.2-0.2,4.3,0.6,6.2c0.2,0.7,0.4,1.4,0.5,2.2c3.1,10.3,9.2,20.5,16.9,27.8
	c3.3,3.1,7.3,5.9,11.9,6.4c4.9,0.4,10.2-1.3,14.6-3.4c8.9-4.4,18.8-13.9,13.9-24.7"/>
</svg>
