<?xml version="1.0" encoding="utf-8"?>
<!-- Generator: Adobe Illustrator 16.0.0, SVG Export Plug-In . SVG Version: 6.00 Build 0)  -->
<!DOCTYPE svg PUBLIC "-//W3C//DTD SVG 1.1//EN" "http://www.w3.org/Graphics/SVG/1.1/DTD/svg11.dtd">
<svg version="1.1" id="Layer_1" xmlns="http://www.w3.org/2000/svg" xmlns:xlink="http://www.w3.org/1999/xlink" x="0px" y="0px"
	 width="254.7px" height="169px" viewBox="-5.3 -2 254.7 169" enable-background="new -5.3 -2 254.7 169" xml:space="preserve">
<g>
	<path fill="#B3B3B3" d="M17.5,71.8l40.3-22.3c0,0,26.5,52,78.5,68.4c51.9,16.4,13.8,39.5-40.3,22.3C48.1,125.1,17.5,71.8,17.5,71.8
		z"/>
	<path fill="#FECDC2" d="M39.7,6c-1.4-2-3.3-3.4-5.6-4.5c-2.4-1.1-5.5-0.4-6.7,2.2c-4.2,3.6-2.7,8.1-0.5,12.1
		c3.1,5.5,6.1,11,9.2,16.5c-3.4-2.1-8.3-3.4-11.9-1c-4.5,2.9-4,9.2-2.7,13.7c-3.8-5.6-10.8-3.1-13.2,2.4c-2.6,5.7,0,14.1,3.2,19.2
		c7.3,11.5,22.6,7.9,32.4,2.1c4.8-2.9,9.7-6.9,12.4-11.9c2.4-4.7,2.2-10.3,1.3-15.4c-2.2-12-8.2-24.2-16.1-33.6
		C40.8,7.2,40.2,6.6,39.7,6z"/>
</g>
<line fill="none" stroke="#B3B3B3" stroke-width="5" stroke-linecap="round" stroke-miterlimit="10" x1="199.1" y1="32.8" x2="222.4" y2="18.2"/>
<circle fill="#B3B3B3" cx="170" cy="62.5" r="58"/>
<rect x="112" y="62.5" fill="#B3B3B3" width="116" height="104"/>
<circle fill="#FECDC2" cx="144" cy="107.5" r="8"/>
<circle fill="#333333" cx="126.7" cy="80.5" r="3.9"/>
<circle fill="#333333" cx="171.3" cy="80.5" r="3.9"/>
<line fill="none" stroke="#B3B3B3" stroke-width="5" stroke-linecap="round" stroke-miterlimit="10" x1="203" y1="19.5" x2="219" y2="0.5"/>
<path fill="#B3B3B3" d="M159.8,167c0-23.8,19.3-43.2,43.2-43.2c23.8,0,43.2,19.3,43.2,43.2"/>
</svg>
