<?xml version="1.0" encoding="utf-8"?>
<!-- Generator: Adobe Illustrator 16.0.0, SVG Export Plug-In . SVG Version: 6.00 Build 0)  -->
<!DOCTYPE svg PUBLIC "-//W3C//DTD SVG 1.1//EN" "http://www.w3.org/Graphics/SVG/1.1/DTD/svg11.dtd">
<svg version="1.1" id="Layer_1" xmlns="http://www.w3.org/2000/svg" xmlns:xlink="http://www.w3.org/1999/xlink" x="0px" y="0px"
	 width="215px" height="225px" viewBox="0 0 215 225" enable-background="new 0 0 215 225" xml:space="preserve">
<g>
	<path fill="#FCEE21" d="M117.8,52.7c1.1,0.4,1.8,1.1,1.8,2.2l0.4,6.6c0.4,19,15.4,34.4,34.4,35.2l6.2,0.4c1.1,0,1.8,0.7,1.8,1.8
		v7.3c0.4,29.7-23.8,53.5-53.1,53.5c-29.7,0-53.5-23.8-53.5-53.5c0-29.3,23.8-53.5,53.5-53.5H117.8z M103.5,70.6
		c-17.2,2.6-30.4,17.6-30.4,35.5c0,19.8,16.5,36.3,36.3,36.3c17.6,0,32.2-12.8,35.5-29.7C123.6,108.3,107.5,91.5,103.5,70.6z"/>
</g>
</svg>
